<?xml version="1.0" standalone="no"?>
<!DOCTYPE svg PUBLIC "-//W3C//DTD SVG 20010904//EN"
 "http://www.w3.org/TR/2001/REC-SVG-20010904/DTD/svg10.dtd">
<svg version="1.0" xmlns="http://www.w3.org/2000/svg"
 width="1280.000000pt" height="693.000000pt" viewBox="0 0 1280.000000 693.000000"
 preserveAspectRatio="xMidYMid meet">
<metadata>
Created by potrace 1.15, written by Peter Selinger 2001-2017
</metadata>
<g transform="translate(0.000000,693.000000) scale(0.100000,-0.100000)"
fill="#000000" stroke="none">
<path d="M3233 6921 c-61 -6 -83 -15 -69 -28 4 -4 151 -11 327 -15 344 -8 938
-53 1179 -89 74 -11 176 -24 225 -30 432 -46 673 -95 1015 -205 58 -18 236
-66 395 -104 386 -95 424 -106 755 -227 364 -133 418 -154 570 -218 69 -29
161 -63 205 -74 81 -21 376 -126 560 -199 168 -67 645 -277 822 -363 236 -113
362 -167 409 -174 63 -11 80 10 120 149 42 148 53 166 100 166 20 0 131 -29
248 -64 116 -36 238 -72 270 -82 l59 -16 -6 -162 c-5 -137 -19 -260 -33 -275
-2 -2 -9 1 -16 7 -7 5 -99 53 -204 106 -191 96 -331 156 -319 136 18 -29 304
-206 422 -260 107 -50 341 -210 410 -280 123 -126 129 -134 91 -126 -63 13
-118 16 -118 7 0 -5 42 -35 93 -66 121 -74 187 -119 183 -123 -2 -2 -44 17
-92 41 -103 51 -144 64 -144 44 0 -24 73 -84 210 -172 167 -109 185 -123 235
-195 22 -32 88 -103 146 -158 99 -95 226 -238 218 -246 -2 -3 -49 24 -104 59
-55 34 -159 94 -232 134 -187 101 -845 392 -1123 496 -129 48 -312 121 -407
161 -248 106 -708 270 -805 288 -46 9 42 -28 302 -126 295 -111 1109 -437
1367 -547 386 -164 647 -309 968 -536 33 -24 85 -56 115 -72 58 -32 93 -74 74
-93 -6 -6 -148 -13 -377 -18 -231 -5 -371 -12 -378 -19 -14 -14 44 -63 74 -63
21 0 63 -26 158 -98 24 -19 87 -59 139 -90 238 -139 373 -251 333 -275 -5 -3
-36 -8 -70 -12 l-62 -7 -11 41 c-9 35 -16 42 -48 50 -102 28 -970 76 -1692 95
-146 3 -152 3 -100 -10 99 -24 291 -53 520 -79 190 -21 369 -38 1055 -101 39
-4 77 -11 85 -16 30 -18 -361 8 -695 47 -213 25 -394 37 -441 30 -31 -4 -54
-15 -71 -33 -22 -24 -30 -26 -101 -24 -77 2 -1199 128 -1572 178 -107 14 -261
38 -341 54 -129 26 -763 123 -1265 195 -94 14 -306 38 -470 55 -164 17 -355
39 -424 49 -69 11 -155 22 -192 26 -104 11 -156 -10 -85 -34 34 -13 437 -80
1107 -185 228 -36 491 -79 583 -96 196 -35 271 -44 587 -65 322 -21 531 -41
820 -75 135 -17 324 -37 420 -45 311 -28 812 -85 920 -105 58 -11 193 -24 300
-29 192 -10 406 -34 445 -50 12 -5 -5 -7 -45 -5 -36 2 -272 11 -525 19 -1042
35 -1420 55 -1990 110 -600 58 -994 70 -989 30 4 -23 56 -47 164 -74 209 -53
489 -92 963 -136 152 -14 291 -28 307 -32 35 -7 47 -20 31 -36 -15 -15 -14
-42 4 -57 8 -7 40 -23 72 -37 l58 -24 -250 5 c-137 3 -331 12 -430 21 -164 14
-356 28 -935 69 -113 8 -369 24 -570 36 -201 11 -446 27 -545 35 -207 17 -284
19 -305 5 -21 -13 33 -34 135 -53 206 -40 1101 -131 1875 -192 387 -30 521
-45 514 -56 -8 -14 -391 6 -1069 57 -456 34 -596 48 -759 79 -43 8 -108 15
-145 15 -36 0 -134 9 -216 20 -249 32 -820 77 -1165 90 -324 13 -511 27 -625
46 -132 21 -739 187 -1184 323 -91 28 -167 48 -169 46 -9 -9 148 -76 281 -120
73 -24 261 -78 419 -119 193 -51 300 -83 325 -100 157 -103 1094 -257 2408
-396 517 -54 539 -60 210 -55 -462 7 -686 31 -1285 139 -74 13 -226 36 -337
50 -235 30 -370 57 -838 167 -586 138 -1010 246 -1285 327 -372 111 -403 117
-369 76 42 -52 257 -165 554 -294 105 -45 194 -85 199 -90 5 -6 -7 -7 -30 -4
-77 11 -182 44 -304 94 -289 119 -323 132 -359 135 -46 4 -150 55 -286 140
-118 74 -178 105 -201 105 -21 0 -68 28 -168 103 -88 64 -154 102 -164 92 -7
-6 62 -75 167 -168 147 -130 -72 24 -274 193 -60 50 -163 141 -228 201 -64 60
-122 109 -127 109 -19 0 -10 -36 19 -82 46 -72 225 -270 380 -420 279 -271
411 -366 721 -522 200 -101 343 -164 566 -251 220 -86 294 -117 299 -126 28
-44 -885 289 -978 357 -35 26 -150 102 -240 159 -176 112 -394 294 -641 535
-363 356 -640 696 -800 985 -80 143 -103 170 -140 161 -39 -10 -33 -41 25
-137 28 -46 61 -106 74 -134 50 -113 364 -518 657 -850 43 -48 78 -92 78 -99
-1 -18 -172 167 -300 324 -136 168 -163 195 -185 186 -14 -5 -14 -9 -1 -35 9
-16 55 -83 104 -148 117 -156 119 -163 23 -63 -45 47 -98 114 -118 150 -20 36
-85 137 -144 225 -59 88 -117 181 -129 208 -21 44 -42 59 -55 38 -14 -24 97
-318 160 -424 20 -33 34 -62 31 -64 -7 -8 -81 44 -107 75 -70 82 -170 333
-209 524 -27 129 -48 199 -67 218 -13 13 -16 13 -29 -5 -12 -16 -14 -36 -9
-94 10 -106 48 -281 84 -385 17 -49 31 -100 31 -114 l0 -24 -35 31 c-20 17
-42 31 -49 31 -7 0 -22 10 -34 23 -24 25 -83 150 -102 214 -7 23 -22 52 -33
64 -20 21 -20 21 2 123 23 109 27 171 11 181 -5 3 -25 -10 -44 -30 -39 -44
-40 -43 -57 80 -9 74 -9 93 5 136 15 46 15 51 0 82 -20 37 -24 141 -8 157 16
16 39 -16 119 -168 37 -72 81 -147 98 -167 54 -66 134 -83 214 -44 126 61 222
287 189 446 -22 110 -37 98 -55 -45 -25 -200 -86 -331 -161 -347 -43 -9 -111
26 -163 86 -58 66 -179 267 -170 282 11 20 168 209 210 255 22 23 48 42 57 42
30 0 76 -30 142 -91 62 -57 84 -70 84 -49 0 37 -105 153 -167 184 -53 27 -114
21 -168 -16 -37 -25 -63 -57 -109 -134 -63 -104 -115 -178 -122 -172 -2 3 16
124 26 165 0 0 16 20 35 43 34 41 35 44 35 126 0 93 4 104 98 269 124 218 291
431 396 508 40 28 34 19 -114 -173 -187 -243 -304 -436 -298 -493 4 -45 34
-47 77 -5 33 33 190 263 213 313 6 14 19 25 30 25 10 0 18 6 18 14 0 50 257
336 456 507 318 274 667 458 1048 555 204 52 363 76 689 104 250 22 330 36
324 53 -5 17 -242 21 -412 7 -345 -28 -601 -83 -1008 -217 -295 -96 -517 -196
-626 -280 -31 -24 -123 -92 -206 -151 -233 -167 -425 -370 -615 -647 -33 -49
-60 -95 -60 -102 0 -8 -13 -40 -29 -72 -42 -83 -66 -160 -108 -344 -37 -161
-37 -163 -37 -387 0 -164 5 -256 18 -340 26 -170 79 -373 124 -475 61 -140
166 -344 207 -405 20 -30 42 -68 49 -85 18 -42 245 -294 368 -409 191 -177
359 -309 526 -414 70 -44 498 -255 707 -349 430 -193 909 -372 1180 -441 208
-53 514 -125 663 -157 65 -14 156 -38 203 -54 82 -27 161 -44 357 -76 52 -8
106 -22 121 -29 28 -15 51 -53 51 -85 0 -33 30 -106 56 -136 52 -60 78 -156
129 -487 19 -122 36 -222 38 -224 2 -2 89 -35 195 -74 l192 -70 124 0 c201 0
809 52 1009 86 130 22 201 47 263 94 61 46 56 46 169 -5 95 -44 116 -64 109
-107 -11 -63 52 -111 213 -161 114 -36 363 -87 427 -87 50 0 53 2 69 35 11 23
25 36 44 41 57 12 56 11 49 68 -7 49 -5 56 19 80 29 29 27 55 -6 92 -18 19
-18 22 -4 34 38 31 -3 127 -62 142 -17 5 -44 23 -60 42 -49 58 -95 68 -108 25
-4 -11 -12 -18 -18 -16 -22 7 -46 103 -72 297 -14 106 -28 197 -30 201 -14 22
42 29 320 38 245 8 359 18 620 50 176 22 487 60 690 86 204 25 398 51 433 59
56 11 66 11 82 -3 10 -9 43 -72 74 -141 73 -166 271 -584 302 -637 32 -55 55
-60 127 -29 31 14 90 31 130 37 39 7 88 20 108 30 42 21 298 101 381 119 32 7
65 21 74 31 25 28 33 178 34 634 l0 410 136 74 c167 91 290 171 369 240 33 29
81 64 108 79 28 15 55 39 64 56 9 17 42 61 74 98 98 113 208 290 229 367 4 16
16 28 34 32 40 11 246 27 561 44 403 22 525 37 525 65 0 23 -390 241 -534 299
-171 68 -259 84 -406 77 l-125 -6 -22 91 c-24 101 -135 336 -221 469 -127 196
-457 550 -642 688 l-95 71 -1 283 c0 156 -5 296 -10 312 -10 29 -16 31 -479
163 l-470 134 -26 -29 c-33 -37 -68 -128 -77 -201 -6 -45 -12 -58 -33 -70 -24
-13 -29 -13 -55 6 -52 37 -424 233 -589 310 -253 118 -532 238 -635 273 -52
17 -168 63 -258 101 -94 40 -207 80 -267 94 -56 13 -246 71 -421 128 -566 185
-899 279 -1579 446 -421 102 -757 169 -1050 206 -262 33 -620 66 -815 75 -219
10 -655 11 -757 1z m7339 -1617 c61 -10 73 -32 76 -143 4 -105 -21 -358 -37
-374 -13 -13 -62 7 -89 36 -36 39 -54 122 -59 278 -7 176 3 223 45 215 15 -3
44 -8 64 -12z m1497 -1985 c28 -6 61 -19 73 -29 23 -19 22 -19 -79 -20 -57 0
-105 4 -108 10 -3 6 1 10 9 10 36 0 12 18 -36 27 l-53 10 72 2 c40 0 95 -4
122 -10z m207 -95 c34 -16 50 -31 42 -39 -4 -4 -106 10 -163 22 l-30 7 40 12
c55 17 71 17 111 -2z m246 -153 c18 -16 31 -32 28 -34 -10 -11 -530 -29 -655
-23 -186 8 -285 17 -285 26 0 12 63 19 270 31 107 5 251 14 320 18 69 5 162 9
207 10 78 1 84 -1 115 -28z m-1264 -657 c-10 -9 -160 -33 -210 -34 -49 0 -65
16 -25 25 46 10 244 18 235 9z m-485 -21 c-24 -2 -62 -2 -85 0 -24 2 -5 4 42
4 47 0 66 -2 43 -4z m-1970 -90 c-13 -2 -33 -2 -45 0 -13 2 -3 4 22 4 25 0 35
-2 23 -4z m2147 -92 c0 -25 -237 -107 -400 -140 -225 -44 -434 -59 -945 -68
-581 -9 -1950 22 -2114 48 -46 7 -71 17 -86 33 -15 16 -42 28 -81 35 -136 26
-163 33 -173 45 -26 31 30 33 219 11 461 -55 760 -78 1265 -95 176 -6 367 -16
425 -21 275 -27 823 -18 1007 16 43 8 155 26 248 40 94 15 247 42 340 60 230
46 295 54 295 36z m-4465 -221 c313 -20 421 -32 457 -51 23 -13 25 -74 2 -83
-9 -3 -33 -2 -53 3 -51 14 -265 43 -691 96 -201 25 -385 49 -410 55 -69 15
320 4 695 -20z m-2394 -99 c93 -21 171 -51 152 -58 -6 -2 -101 10 -210 26
-255 40 -259 41 -242 53 21 14 200 1 300 -21z m6410 -57 c9 -35 29 -509 29
-681 0 -67 -5 -134 -11 -150 -10 -26 -11 -27 -24 -10 -33 45 -59 355 -53 635
4 195 13 249 41 239 6 -2 14 -17 18 -33z m-240 -346 c11 -298 1 -556 -21 -583
-24 -29 -34 3 -38 128 -4 125 14 655 25 715 14 82 25 -4 34 -260z m374 249
c15 -36 11 -72 -12 -98 -16 -19 -32 -117 -33 -194 0 -59 -14 -89 -23 -53 -9
30 -9 341 -1 362 3 9 17 16 31 16 18 0 28 -8 38 -33z m-581 -133 c6 -44 5
-182 -2 -380 -12 -316 -23 -410 -35 -303 -9 69 -9 722 -1 744 13 33 29 7 38
-61z m358 -356 c3 -248 0 -293 -19 -274 -11 11 -17 512 -7 604 l8 77 8 -70 c4
-38 9 -190 10 -337z m-269 285 c9 -144 7 -623 -2 -647 -14 -36 -20 0 -27 160
-7 173 4 594 16 594 4 0 10 -48 13 -107z m-193 -178 c9 -219 1 -548 -13 -561
-14 -15 -26 18 -33 96 -10 109 -11 701 0 725 8 18 10 17 23 -15 11 -25 18 -95
23 -245z m-120 188 c15 -72 9 -539 -7 -567 -9 -16 -12 -11 -23 34 -14 58 -20
542 -8 573 13 31 26 18 38 -40z m-2528 7 c115 -11 184 -28 118 -29 -61 -1
-264 20 -280 29 -21 13 28 13 162 0z m2397 -17 c12 -32 31 -208 31 -295 0 -75
-16 -74 -47 3 -37 92 -52 270 -27 311 11 17 32 7 43 -19z m-4547 -147 c4 -6 8
-33 8 -61 0 -67 16 -120 45 -151 53 -58 39 -57 -182 7 -179 51 -253 79 -274
105 -11 13 -30 142 -23 154 5 10 419 -42 426 -54z m228 -133 c4 -49 6 -101 3
-117 -6 -32 -31 -46 -44 -25 -12 20 -11 166 2 213 16 57 29 33 39 -71z m498
53 c6 -21 13 -78 15 -127 1 -71 -1 -92 -13 -99 -19 -12 -31 -12 -50 0 -20 13
-22 213 -2 248 18 31 34 24 50 -22z m-399 12 c13 -37 23 -145 15 -183 -8 -43
-28 -45 -43 -4 -12 34 -15 167 -5 193 9 23 23 20 33 -6z m139 10 c17 -17 16
-218 -1 -242 -12 -16 -14 -16 -32 4 -17 19 -20 35 -18 109 2 84 14 141 31 141
4 0 13 -5 20 -12z m120 -12 c18 -41 34 -180 23 -209 -12 -31 -23 -38 -41 -27
-26 16 -26 260 -1 260 4 0 13 -11 19 -24z m872 -26 c21 -21 25 -46 11 -69 -7
-11 -14 -4 -30 27 -32 63 -23 84 19 42z m-590 -26 c17 -44 12 -166 -7 -194
-10 -14 -19 -40 -20 -59 -2 -32 -9 -49 -17 -40 -8 8 -10 294 -3 307 13 20 37
14 47 -14z m1227 -39 c25 -122 42 -273 44 -385 l2 -115 -119 -42 c-65 -23
-126 -42 -134 -42 -15 -1 -157 178 -200 252 -33 56 -24 111 39 243 82 171 59
155 219 152 l137 -3 12 -60z m-1108 3 c5 -13 15 -44 22 -71 19 -78 49 -72 49
9 0 50 23 76 46 53 15 -16 37 -126 28 -140 -3 -5 -45 -9 -95 -9 l-89 0 0 74
c0 77 6 106 21 106 5 0 13 -10 18 -22z m246 -39 c14 -64 -17 -137 -45 -104
-13 16 -8 68 12 111 15 32 25 30 33 -7z m332 -6 c-6 -37 -22 -61 -33 -51 -8 9
17 88 29 88 6 0 7 -15 4 -37z m-1862 -27 c18 -27 37 -173 28 -217 -3 -16 -18
-38 -34 -49 l-27 -20 -15 52 c-34 119 -48 234 -30 251 16 16 63 6 78 -17z
m177 -53 c41 -48 51 -154 17 -197 -38 -48 -59 -30 -59 52 0 26 -5 67 -11 91
-5 24 -8 50 -5 58 8 19 40 16 58 -4z m1483 -10 c14 -31 18 -345 6 -377 -9 -23
-14 -27 -24 -17 -8 8 -13 61 -15 158 -5 202 8 294 33 236z m-1336 -97 c0 -28
-2 -27 -15 14 -17 56 -17 60 1 36 8 -11 15 -34 14 -50z m290 35 c27 -25 31
-36 31 -80 0 -55 -2 -57 -40 -36 -14 8 -39 14 -56 15 -36 0 -51 14 -64 61 -13
44 9 69 60 69 28 0 46 -8 69 -29z m626 -10 c6 -11 -45 -121 -57 -121 -12 0
-10 88 2 111 11 20 45 26 55 10z m-289 -15 c18 -14 18 -15 -6 -20 -55 -12
-193 -11 -197 2 -7 19 35 31 113 31 46 1 77 -4 90 -13z m477 8 c13 -13 -14
-44 -38 -44 -28 0 -75 19 -75 31 0 15 100 26 113 13z m-1036 -111 c-2 -16 -4
-5 -4 22 0 28 2 40 4 28 2 -13 2 -35 0 -50z m1539 -78 c24 -16 144 -187 144
-204 0 -15 -13 -14 -100 10 -107 29 -140 50 -140 91 0 43 44 117 70 118 3 0
15 -7 26 -15z m-606 -118 c0 -67 -15 -137 -30 -137 -41 0 -39 176 3 202 21 13
27 -3 27 -65z m109 26 c-1 -76 -13 -136 -28 -141 -11 -4 -13 11 -9 80 2 46 8
89 12 96 15 25 26 10 25 -35z m111 28 c14 -28 12 -114 -4 -136 -25 -34 -46
-12 -46 49 0 88 25 132 50 87z m-1492 -21 c42 -11 139 -30 216 -44 83 -14 142
-29 147 -37 17 -27 10 -85 -12 -105 -46 -42 -238 -1 -348 74 -56 38 -108 103
-96 121 8 14 2 14 93 -9z m1040 -15 c2 -16 1 -58 -3 -93 -8 -77 -34 -108 -71
-84 -9 5 -9 31 -2 97 13 118 13 117 45 113 23 -2 29 -9 31 -33z m121 13 c0
-38 -25 -177 -32 -184 -3 -4 -14 -4 -23 0 -14 6 -16 17 -10 89 9 108 12 117
42 117 18 0 24 -5 23 -22z m-379 -24 c21 -55 7 -194 -19 -194 -14 0 -31 67
-31 122 0 52 14 98 30 98 6 0 15 -12 20 -26z m115 6 c6 -19 2 -60 -11 -133
-10 -49 -24 -18 -24 53 0 70 6 100 20 100 5 0 12 -9 15 -20z m-236 -16 c16
-21 21 -41 21 -88 0 -70 -16 -100 -57 -111 -41 -10 -53 15 -53 105 0 76 9 102
40 113 25 9 28 8 49 -19z m1931 -23 c72 -51 95 -176 51 -278 -28 -63 -57 -91
-101 -98 -35 -5 -35 -5 -8 8 46 22 68 48 68 82 0 34 -13 51 -44 56 -12 3 -33
30 -55 74 -20 39 -45 84 -57 100 -37 54 -37 53 13 69 54 17 96 13 133 -13z
m-2080 -12 c13 -23 -5 -159 -20 -159 -9 0 -30 109 -30 153 0 34 34 37 50 6z
m1877 -48 c47 -22 73 -62 73 -115 0 -19 -7 -41 -15 -50 -23 -23 -98 -30 -168
-16 -74 14 -103 28 -141 69 -37 39 -66 43 -42 6 20 -31 20 -49 0 -80 -10 -15
-13 -32 -9 -47 7 -21 5 -21 -24 6 -79 75 -11 173 157 227 73 23 117 23 169 0z
m-35 -299 c20 -20 6 -20 -67 -1 l-70 18 63 -3 c34 -1 68 -8 74 -14z"/>
<path d="M7213 888 c-45 -50 -55 -101 -12 -62 19 17 49 65 49 79 0 12 -18 4
-37 -17z"/>
<path d="M5466 6571 c5 -5 173 -60 374 -121 201 -61 460 -141 575 -177 237
-74 275 -84 275 -73 0 13 -54 32 -825 280 -256 83 -432 123 -399 91z"/>
<path d="M5546 6452 c-8 -13 54 -39 146 -62 46 -12 205 -54 353 -95 311 -86
395 -106 395 -96 0 14 -528 175 -787 240 -91 24 -100 24 -107 13z"/>
<path d="M2560 6435 c-24 -8 -76 -17 -115 -21 -140 -12 -361 -76 -630 -181
-153 -60 -603 -270 -718 -335 -163 -93 -367 -243 -505 -373 -128 -120 -168
-191 -127 -225 23 -19 42 -6 185 127 260 241 531 425 755 513 44 17 114 50
155 72 180 97 386 172 772 283 142 41 271 81 288 90 32 17 40 49 14 59 -20 8
-20 8 -74 -9z"/>
<path d="M5830 6269 c0 -21 401 -146 590 -184 47 -9 94 -19 105 -22 13 -3 17
-2 10 5 -9 9 -108 40 -460 147 -141 43 -245 66 -245 54z"/>
<path d="M6120 6096 c0 -13 174 -74 480 -169 204 -64 240 -73 224 -58 -18 20
-458 168 -609 207 -33 8 -68 17 -77 20 -10 3 -18 3 -18 0z"/>
<path d="M7620 5790 c0 -14 78 -49 108 -50 35 0 26 19 -20 40 -47 22 -88 26
-88 10z"/>
<path d="M7410 5730 c0 -14 45 -33 349 -145 669 -245 958 -364 1451 -597 330
-156 345 -162 365 -154 18 7 20 40 3 53 -19 15 -564 267 -713 331 -232 98
-546 219 -851 328 -541 193 -604 212 -604 184z"/>
<path d="M2470 5689 c-58 -4 -163 -17 -235 -28 -71 -11 -168 -25 -215 -31
-350 -43 -758 -131 -1100 -237 -191 -59 -259 -89 -266 -119 -16 -65 34 -70
169 -18 201 77 626 184 952 238 373 62 584 84 937 96 158 6 299 15 313 20 33
12 34 54 3 72 -28 15 -404 20 -558 7z"/>
<path d="M7170 5662 c0 -17 112 -61 770 -302 564 -207 618 -227 783 -297 77
-33 111 -43 119 -35 33 33 -51 70 -854 366 -580 214 -818 292 -818 268z"/>
<path d="M8046 5640 c13 -13 131 -66 664 -298 568 -246 814 -359 1161 -528
162 -79 303 -144 312 -144 9 0 17 7 17 15 0 48 -312 204 -990 495 -547 235
-694 300 -705 311 -5 6 35 -6 90 -26 150 -55 233 -81 306 -98 36 -9 161 -59
277 -111 116 -53 251 -110 299 -127 125 -44 442 -184 695 -306 119 -58 225
-103 235 -101 24 6 -336 185 -642 320 -622 275 -1165 478 -1276 478 -21 0 -85
18 -141 39 -195 74 -331 110 -302 81z"/>
<path d="M6950 5607 c18 -20 1092 -427 1127 -427 30 0 29 14 -3 35 -76 50
-976 374 -1084 391 -25 4 -43 4 -40 1z"/>
<path d="M526 4971 c-4 -6 -4 -21 0 -34 8 -34 -19 -81 -63 -112 -45 -30 -76
-32 -110 -5 -32 25 -130 29 -139 5 -8 -19 54 -102 113 -155 56 -49 112 -66
165 -51 85 26 134 105 126 205 -7 88 -69 186 -92 147z"/>
<path d="M931 4949 c-85 -6 -108 -12 -125 -28 -15 -15 -17 -24 -9 -32 17 -17
188 -28 438 -29 380 0 1027 -40 1145 -70 19 -5 121 -16 225 -25 168 -15 249
-26 480 -66 74 -13 103 -6 116 28 13 34 -9 68 -53 82 -124 39 -890 120 -1336
141 -240 11 -730 11 -881 -1z"/>
<path d="M10460 4701 c0 -10 83 -61 89 -55 6 5 -25 29 -61 49 -16 9 -28 11
-28 6z"/>
<path d="M783 4643 c-26 -68 430 -276 975 -444 151 -47 1113 -296 1239 -322
66 -13 103 0 103 37 0 39 -36 64 -114 80 -39 8 -107 22 -151 31 -128 26 -577
140 -873 221 -354 97 -592 176 -778 259 -217 98 -356 155 -377 155 -10 0 -21
-8 -24 -17z"/>
<path d="M10590 4633 c0 -8 73 -53 86 -53 13 0 -20 31 -47 46 -32 16 -39 17
-39 7z"/>
<path d="M640 4485 c-39 -47 91 -184 490 -517 243 -204 427 -335 644 -463 152
-89 702 -354 760 -367 28 -5 59 -17 68 -25 9 -9 37 -18 60 -20 34 -4 49 -1 68
16 l25 21 -37 33 c-22 20 -91 55 -180 91 -660 271 -1338 714 -1692 1106 -111
122 -175 162 -206 125z"/>
<path d="M4239 4346 c32 -38 826 -192 1036 -201 l100 -4 -60 15 c-33 8 -190
38 -350 65 -159 27 -381 70 -492 94 -221 49 -252 53 -234 31z"/>
<path d="M4487 4119 c38 -38 874 -206 1118 -224 l70 -5 -45 16 c-25 8 -173 37
-330 64 -294 51 -329 57 -590 114 -188 41 -237 49 -223 35z"/>
<path d="M7736 3960 c18 -18 254 -56 254 -40 0 6 -48 15 -235 46 -19 3 -26 1
-19 -6z"/>
<path d="M4493 3946 c43 -33 414 -124 715 -176 170 -30 386 -42 352 -20 -16
10 -64 18 -293 50 -184 25 -349 58 -581 116 -194 48 -222 52 -193 30z"/>
<path d="M4155 3879 c-4 -6 -5 -12 -3 -14 8 -9 199 -56 343 -85 180 -37 864
-150 906 -150 22 0 29 5 29 20 0 16 -7 20 -36 20 -104 0 -856 132 -1134 199
-99 24 -97 24 -105 10z"/>
<path d="M8285 3859 c74 -22 402 -94 702 -154 180 -36 378 -79 438 -95 197
-52 519 -110 498 -89 -19 18 -388 101 -958 214 -148 30 -359 72 -467 95 -186
38 -288 52 -213 29z"/>
<path d="M3882 3818 c13 -41 401 -115 977 -189 162 -20 247 -27 253 -21 16 16
-45 29 -322 67 -322 45 -515 78 -705 121 -162 37 -209 42 -203 22z"/>
<path d="M3660 3760 c0 -38 270 -109 700 -185 161 -28 345 -43 320 -26 -19 13
-101 32 -355 80 -115 23 -300 63 -410 91 -199 50 -255 59 -255 40z"/>
<path d="M10231 3470 c49 -28 269 -56 243 -30 -11 11 -172 40 -223 40 -28 -1
-32 -3 -20 -10z"/>
<path d="M7475 1041 c-7 -12 31 -18 140 -25 151 -9 222 -50 296 -172 68 -113
86 -158 94 -236 7 -68 18 -89 37 -70 19 19 -8 175 -41 245 -63 131 -188 233
-315 256 -73 14 -203 14 -211 2z"/>
<path d="M7766 841 c-3 -5 8 -35 24 -66 38 -72 40 -98 6 -66 -36 34 -61 24
-60 -23 2 -42 28 -83 67 -106 35 -20 61 -4 65 39 5 49 17 37 31 -32 18 -93 31
-104 31 -27 0 94 -40 210 -93 268 -21 22 -61 30 -71 13z"/>
<path d="M8003 378 c-6 -7 -24 -40 -42 -74 -18 -33 -50 -82 -71 -108 -22 -27
-40 -52 -40 -57 0 -20 21 -6 74 51 43 47 60 75 76 127 20 66 21 84 3 61z"/>
<path d="M7220 213 c0 -28 129 -146 195 -179 54 -26 70 -29 155 -29 92 0 160
16 160 36 0 5 -47 8 -104 7 -116 -3 -143 6 -113 40 24 26 21 36 -13 66 -51 42
-130 55 -194 30 -7 -3 -27 6 -44 20 -35 31 -42 32 -42 9z"/>
</g>
</svg>
