<?xml version="1.0" standalone="no"?>
<!DOCTYPE svg PUBLIC "-//W3C//DTD SVG 20010904//EN"
 "http://www.w3.org/TR/2001/REC-SVG-20010904/DTD/svg10.dtd">
<svg version="1.0" xmlns="http://www.w3.org/2000/svg"
 width="1280.000000pt" height="706.000000pt" viewBox="0 0 1280.000000 706.000000"
 preserveAspectRatio="xMidYMid meet">
<metadata>
Created by potrace 1.15, written by Peter Selinger 2001-2017
</metadata>
<g transform="translate(0.000000,706.000000) scale(0.100000,-0.100000)"
fill="#000000" stroke="none">
<path d="M6123 7049 c-220 -37 -421 -223 -478 -444 -18 -71 -21 -223 -4 -291
6 -27 30 -87 52 -134 36 -74 57 -101 167 -211 160 -161 324 -285 510 -387 139
-75 356 -153 492 -176 35 -6 40 -13 127 -160 317 -536 605 -1220 824 -1959 35
-117 35 -119 14 -114 -256 63 -300 70 -312 54 -11 -15 -16 -15 -66 4 -60 23
-200 29 -223 10 -10 -9 -374 162 -1550 725 -1404 673 -1539 735 -1553 721 -22
-22 -6 -39 60 -70 29 -14 655 -313 1392 -667 737 -353 1401 -671 1476 -707
114 -54 135 -68 135 -86 -1 -20 6 -23 59 -29 166 -18 220 -57 290 -210 31 -68
54 -219 39 -266 l-9 -30 -415 194 c-228 107 -422 193 -430 192 -8 -2 -16 -12
-18 -24 -2 -15 7 -25 35 -38 193 -93 805 -376 813 -376 15 0 6 -30 -30 -105
-31 -64 -58 -98 -115 -141 l-35 -27 -1453 697 c-799 383 -1463 696 -1475 696
-25 0 -31 -31 -9 -47 6 -5 311 -153 677 -328 366 -175 834 -399 1040 -498 206
-99 427 -204 490 -234 l115 -54 -35 -16 c-603 -260 -1176 -394 -1940 -453
-206 -15 -528 -30 -669 -30 l-126 0 -73 55 c-126 94 -280 177 -447 240 -117
44 -432 125 -485 125 -233 0 -441 -172 -505 -415 -19 -76 -19 -214 0 -290 25
-97 72 -181 143 -256 59 -63 79 -77 206 -138 86 -42 175 -77 229 -91 405 -100
1052 -44 1377 120 61 31 62 31 333 45 659 35 1165 69 1650 111 164 14 300 24
302 22 2 -2 -9 -30 -25 -63 -44 -92 -62 -177 -61 -290 0 -120 17 -191 72 -303
46 -94 144 -201 221 -242 26 -13 49 -32 51 -42 10 -35 287 -133 507 -179 612
-127 1276 -2 1618 307 l51 45 168 -89 c168 -89 368 -185 493 -237 36 -15 83
-36 105 -46 94 -43 477 -172 634 -214 366 -97 615 -133 976 -142 285 -6 404 2
643 42 79 14 147 25 152 25 6 0 10 -16 10 -36 0 -26 8 -43 29 -65 46 -46 99
-37 171 27 l41 37 88 -27 c102 -30 129 -32 138 -10 5 12 -17 38 -77 94 l-84
76 3 61 c2 52 -1 64 -24 91 -22 27 -34 32 -69 32 -23 0 -51 -7 -62 -15 -25
-17 -34 -11 -34 21 0 41 -67 228 -118 330 -98 194 -223 365 -411 558 -489 503
-1285 962 -2326 1344 -104 38 -208 75 -230 82 -22 7 -46 18 -54 24 -8 6 -21
11 -30 11 -9 0 -58 14 -109 30 l-93 30 -61 190 c-326 1019 -784 1909 -1259
2445 -78 87 -88 104 -123 200 -169 459 -426 834 -751 1095 -113 91 -203 149
-330 213 -176 88 -277 107 -432 81z m302 -88 c163 -63 279 -191 332 -364 23
-76 21 -224 -6 -308 -51 -159 -192 -304 -347 -355 -83 -27 -265 -27 -348 0
-119 40 -247 146 -305 255 -90 170 -88 378 6 538 64 109 180 204 296 242 88
28 101 30 202 26 72 -2 107 -10 170 -34z m450 -272 c248 -203 468 -501 624
-848 56 -125 104 -252 97 -258 -9 -9 -257 35 -378 66 -145 38 -284 88 -406
148 -100 49 -242 138 -241 150 0 5 24 27 54 50 64 51 144 167 175 254 28 81
38 246 20 328 -14 64 -45 144 -72 183 -39 57 -15 43 127 -73z m-287 -861 c73
-88 150 -191 222 -297 l43 -64 -39 7 c-63 12 -241 74 -328 114 -107 51 -244
135 -353 217 l-88 67 45 -8 c25 -5 95 -9 155 -8 91 0 122 5 180 26 39 14 75
26 82 27 7 0 43 -36 81 -81z m461 -188 c146 -48 386 -102 513 -115 l68 -7 69
-77 c413 -460 838 -1235 1143 -2086 67 -186 168 -498 163 -503 -2 -2 -46 10
-97 27 -123 40 -532 155 -790 222 l-206 53 -42 146 c-118 408 -308 921 -480
1300 -88 194 -253 512 -351 675 -46 77 -86 144 -88 148 -7 18 -185 274 -217
314 -19 23 -34 43 -34 46 0 2 46 -18 101 -46 56 -27 167 -71 248 -97z m408
-2475 c106 -48 197 -157 248 -295 37 -101 46 -261 21 -374 -26 -117 -84 -222
-160 -294 -82 -76 -151 -105 -253 -105 -64 0 -82 4 -147 37 -53 26 -89 53
-125 92 -45 51 -98 144 -116 202 -6 20 -4 21 17 11 13 -5 36 -30 51 -54 36
-57 91 -105 152 -136 70 -34 179 -34 249 1 102 50 194 179 227 320 17 76 15
212 -4 287 -44 168 -138 279 -274 324 l-58 20 60 -6 c33 -3 83 -17 112 -30z
m339 -45 c401 -95 781 -199 1169 -320 321 -100 312 -96 368 -165 65 -80 121
-183 154 -280 24 -72 27 -94 27 -230 1 -106 -5 -175 -17 -235 -26 -126 -79
-301 -91 -306 -7 -3 -104 38 -216 90 -113 51 -461 212 -775 356 -313 144 -575
267 -582 272 -15 12 -65 6 -70 -9 -2 -6 5 -19 15 -30 11 -10 34 -47 52 -83 77
-153 110 -285 90 -360 -12 -45 -52 -90 -80 -90 -34 0 -202 125 -354 264 l-60
54 57 26 c288 137 406 571 243 897 -33 64 -98 151 -135 179 -14 11 -21 20 -15
20 6 0 105 -22 220 -50z m1774 -525 c95 -35 177 -68 181 -72 54 -58 218 -328
206 -340 -8 -7 -374 156 -397 177 -9 8 -30 46 -45 84 -16 38 -50 102 -76 142
-27 41 -47 74 -46 74 2 0 82 -29 177 -65z m-2750 -100 c21 -11 32 -27 41 -58
21 -79 81 -186 141 -252 79 -86 180 -138 280 -143 l69 -4 102 -92 c119 -107
207 -179 248 -203 16 -10 29 -20 29 -24 0 -19 -191 28 -350 86 -62 23 -92 28
-170 28 -152 1 -268 -45 -384 -153 l-61 -57 -320 -26 c-428 -36 -788 -62
-1210 -87 -620 -36 -680 -38 -689 -29 -14 12 -50 11 -63 -2 -8 -8 -35 9 -100
64 -153 130 -410 283 -637 377 l-89 38 239 6 c1090 30 1590 89 2178 256 309
87 694 236 703 272 6 22 7 22 43 3z m3373 -150 c94 -41 119 -58 181 -119 40
-39 91 -98 113 -131 45 -66 107 -185 100 -191 -2 -2 -44 15 -93 37 -49 23
-169 77 -268 119 l-178 77 -57 114 c-31 63 -75 142 -99 176 l-42 61 118 -47
c64 -27 166 -70 225 -96z m-7100 25 c129 -40 233 -134 293 -264 24 -52 25 -61
13 -83 -13 -23 -12 -27 9 -41 20 -13 22 -23 22 -91 0 -377 -358 -615 -670
-445 -61 33 -151 127 -184 193 -87 171 -78 382 22 537 112 174 310 251 495
194z m4087 -46 c75 -40 80 -44 45 -38 -45 7 -77 22 -120 58 -44 37 -21 31 75
-20z m-3573 -124 c103 -49 251 -139 273 -165 9 -11 -20 -14 -187 -17 -109 -2
-203 -2 -210 0 -6 2 -14 18 -17 35 -10 53 -60 149 -110 210 l-46 57 98 -35
c53 -20 143 -57 199 -85z m6163 -5 c105 -47 195 -85 200 -85 20 0 40 -49 60
-150 39 -186 15 -396 -63 -561 l-32 -67 -205 94 c-113 53 -219 101 -237 109
l-31 13 29 93 c62 191 82 310 83 482 1 86 2 157 3 157 1 0 88 -38 193 -85z
m1078 -174 c36 -21 53 -42 89 -108 40 -73 119 -273 109 -273 -2 0 -60 33 -128
73 -67 41 -151 88 -185 107 -57 30 -64 37 -83 86 -38 104 -123 249 -164 283
-9 7 -16 18 -16 23 0 9 272 -128 378 -191z m-2288 -121 c360 -165 686 -315
724 -333 l69 -31 -6 -136 c-3 -75 -13 -162 -22 -195 -39 -142 -139 -303 -252
-404 -57 -51 -174 -134 -206 -147 -12 -4 -28 19 -73 108 -110 220 -301 477
-444 598 -130 110 -197 148 -447 260 -71 32 -91 50 -55 50 30 0 91 49 112 90
40 78 23 216 -45 373 -18 43 -28 76 -22 74 7 -3 307 -141 667 -307z m1658 101
c75 -32 196 -86 269 -121 l132 -62 13 -52 c8 -32 13 -111 13 -211 0 -136 -4
-173 -23 -245 -23 -83 -62 -183 -90 -227 l-14 -22 -71 33 c-40 19 -157 73
-262 121 -104 49 -191 89 -192 90 -1 0 13 37 32 81 76 175 100 361 71 534 -9
52 -19 105 -22 118 -4 12 -3 22 1 22 3 0 68 -26 143 -59z m-6558 -108 c151
-60 365 -169 492 -252 107 -70 258 -187 258 -200 0 -19 -179 -83 -321 -115
-307 -69 -736 -75 -1006 -15 -60 14 -61 24 -1 33 127 20 275 141 342 278 44
87 65 175 66 267 l0 63 28 -7 c15 -3 79 -27 142 -52z m7445 -23 c208 -130 228
-148 309 -285 36 -62 100 -236 94 -260 -2 -8 -52 23 -135 84 -72 54 -159 116
-193 137 -40 26 -62 47 -66 64 -13 59 -59 190 -90 258 -18 40 -28 69 -21 65 7
-4 53 -32 102 -63z m-3730 -126 c97 -38 131 -61 200 -135 284 -304 157 -834
-227 -950 -58 -18 -87 -21 -169 -17 -92 5 -106 8 -184 47 -142 70 -243 193
-291 356 -22 73 -24 226 -5 305 49 205 221 380 412 420 76 16 186 5 264 -26z
m3427 -29 c54 -30 136 -79 182 -109 l84 -54 12 -89 c16 -112 7 -301 -19 -409
-17 -70 -68 -214 -76 -214 -11 0 -400 191 -403 198 -1 5 11 35 27 68 37 75 77
208 92 304 11 75 7 293 -6 338 -4 12 -4 22 0 22 5 0 53 -25 107 -55z m-3027
-86 c17 -15 102 -61 190 -102 181 -82 239 -118 344 -211 160 -140 320 -355
432 -578 l59 -119 -67 -30 c-310 -139 -805 -179 -1218 -98 -95 19 -305 75
-314 85 -2 2 13 4 35 4 181 0 391 144 483 330 117 239 80 546 -88 728 l-30 32
72 -6 c61 -6 77 -11 102 -35z m3882 -157 c110 -94 179 -200 216 -332 19 -68
32 -150 23 -150 -4 0 -42 30 -84 68 -42 37 -111 95 -153 129 l-75 61 -13 68
c-15 81 -39 156 -78 239 -15 33 -29 64 -32 69 -5 12 95 -66 196 -152z m-1859
-140 c56 -25 102 -50 102 -55 0 -18 -91 -137 -153 -199 -169 -172 -396 -289
-504 -262 -20 5 -38 14 -40 19 -2 6 15 35 37 65 102 136 158 301 167 491 l6
117 141 -65 c78 -35 187 -85 244 -111z m1615 -24 l117 -89 0 -87 c0 -95 -19
-219 -45 -297 -18 -52 -67 -161 -82 -183 -7 -9 -52 8 -187 74 -146 71 -176 89
-170 102 28 66 66 184 81 254 18 88 25 348 10 402 -8 28 -6 27 75 -30 46 -31
136 -97 201 -146z m-1223 -159 c118 -55 234 -109 258 -120 l43 -19 -22 -32
c-88 -126 -206 -227 -342 -293 -125 -60 -189 -75 -344 -82 l-132 -6 -156 79
c-117 58 -152 80 -139 85 170 62 300 144 424 269 47 47 105 115 130 152 25 37
50 67 55 68 6 0 107 -45 225 -101z m1822 -29 c205 -244 341 -503 384 -729 16
-86 26 -101 52 -83 28 20 63 33 73 26 15 -9 10 -76 -10 -119 -22 -50 -78 -107
-100 -103 -12 3 -15 13 -13 41 2 26 -2 39 -12 43 -9 3 -91 -8 -183 -24 -270
-49 -514 -67 -733 -54 l-125 7 87 33 c323 122 528 420 528 767 0 88 -18 201
-44 274 -15 40 -15 42 0 30 9 -7 52 -56 96 -109z m-203 -135 l93 -80 -6 -73
c-7 -84 -44 -203 -88 -282 -55 -100 -40 -99 -210 -14 -82 41 -148 78 -146 82
82 156 126 303 135 454 l6 97 61 -52 c34 -29 103 -88 155 -132z m-1066 -95
c105 -50 196 -95 201 -100 15 -15 -57 -112 -136 -184 -80 -75 -195 -138 -305
-168 -60 -16 -109 -21 -213 -22 -166 -1 -259 17 -402 78 l-102 44 59 7 c272
30 518 177 674 403 12 17 25 32 27 32 3 0 91 -41 197 -90z m497 -240 l121 -61
-21 -28 c-38 -54 -157 -156 -231 -198 -108 -61 -228 -93 -374 -100 -134 -6
-215 6 -369 56 l-89 29 74 7 c127 12 210 35 316 86 116 57 222 148 299 255
l45 63 54 -24 c29 -13 108 -51 175 -85z m328 -164 l144 -72 -61 -57 c-109
-100 -248 -163 -429 -194 -91 -15 -104 -15 -207 1 -60 10 -132 22 -160 28
l-50 11 70 14 c190 39 324 113 454 250 47 50 88 92 91 92 3 0 70 -33 148 -73z
m1073 -343 c12 -15 12 -16 -4 -10 -10 4 -23 7 -28 7 -5 0 -9 5 -9 10 0 16 26
12 41 -7z"/>
<path d="M884 6205 c-3 -8 -4 -19 -2 -25 2 -6 312 -155 688 -331 2087 -975
1909 -894 1928 -876 14 15 14 19 2 31 -12 12 -763 365 -2396 1127 -105 49
-196 89 -203 89 -6 0 -14 -7 -17 -15z"/>
<path d="M570 6200 c-41 -25 -3 -45 740 -392 410 -192 754 -347 765 -346 12 2
20 11 20 23 0 16 -123 77 -730 362 -401 188 -742 346 -756 351 -14 6 -32 7
-39 2z"/>
<path d="M723 5984 c-3 -8 1 -21 8 -28 20 -18 535 -256 554 -256 22 0 31 29
14 45 -20 18 -532 255 -553 255 -9 0 -19 -7 -23 -16z"/>
<path d="M520 5887 c0 -20 22 -34 178 -105 97 -45 185 -82 195 -82 11 0 17 8
17 23 0 21 -21 34 -176 105 -96 45 -184 82 -195 82 -13 0 -19 -7 -19 -23z"/>
<path d="M153 5884 c-3 -8 1 -21 8 -28 20 -19 1904 -896 1923 -896 23 0 32 29
15 44 -8 7 -410 198 -894 424 -484 226 -909 424 -945 441 -73 35 -98 38 -107
15z"/>
<path d="M11 5656 c-6 -7 -9 -20 -6 -27 3 -8 323 -162 711 -343 659 -308 706
-328 722 -313 14 15 14 19 2 31 -12 12 -1400 666 -1414 666 -2 0 -9 -6 -15
-14z"/>
<path d="M343 5594 c-3 -8 -2 -19 3 -24 16 -15 1188 -560 1205 -560 19 0 30
21 20 39 -10 16 -1178 561 -1202 561 -11 0 -22 -7 -26 -16z"/>
<path d="M1680 5465 c-18 -22 -5 -34 84 -75 44 -20 636 -297 1314 -613 715
-334 1239 -574 1248 -570 8 3 14 15 12 26 -2 16 -127 78 -643 319 -352 165
-943 441 -1313 614 -371 173 -677 314 -682 314 -4 0 -13 -7 -20 -15z"/>
<path d="M2237 5467 c-9 -24 6 -34 140 -98 131 -61 163 -67 163 -31 0 14 -31
34 -131 80 -134 64 -163 72 -172 49z"/>
<path d="M637 5233 c-28 -28 3 -45 541 -296 301 -140 928 -433 1394 -651 466
-218 854 -396 862 -396 8 0 17 4 20 9 3 5 50 -10 103 -33 888 -385 1246 -537
1258 -532 8 3 15 17 15 30 0 20 -7 27 -27 32 -25 6 -190 77 -943 401 -177 77
-208 93 -177 93 9 0 17 5 17 10 0 6 4 10 9 10 5 0 103 -43 216 -96 191 -90
208 -96 223 -80 14 14 15 18 2 31 -14 13 -710 344 -774 367 -24 9 -31 8 -41
-6 -11 -15 -63 7 -529 225 -306 143 -522 239 -532 235 -9 -3 -14 -15 -12 -26
3 -19 378 -200 1181 -570 75 -35 136 -65 134 -66 -2 -2 -127 50 -278 116 -151
66 -284 120 -296 120 -26 0 -19 -3 -1223 560 -509 238 -967 452 -1019 476 -94
44 -112 50 -124 37z"/>
<path d="M2613 5144 c-3 -8 1 -22 8 -29 20 -19 413 -205 433 -205 20 0 33 27
19 41 -15 15 -422 209 -439 209 -8 0 -17 -7 -21 -16z"/>
<path d="M3220 4931 c0 -10 6 -23 13 -28 6 -5 151 -74 320 -153 288 -134 309
-142 325 -127 14 15 14 19 2 32 -23 22 -612 295 -637 295 -16 0 -23 -6 -23
-19z"/>
<path d="M2444 4785 c-3 -8 -4 -20 -2 -26 5 -15 2308 -1090 2328 -1087 8 2 16
13 18 24 2 17 -13 28 -95 66 -54 25 -576 269 -1160 542 -584 273 -1067 496
-1073 496 -6 0 -13 -7 -16 -15z"/>
<path d="M3104 4645 c-4 -8 -4 -21 -1 -27 7 -19 385 -191 403 -184 9 3 14 15
12 26 -2 17 -46 41 -195 111 -106 49 -197 89 -203 89 -6 0 -13 -7 -16 -15z"/>
<path d="M3946 4601 c-4 -5 -4 -16 -1 -24 8 -20 550 -271 570 -264 8 4 15 15
15 25 0 15 -57 46 -271 145 -262 123 -301 137 -313 118z"/>
<path d="M3630 4445 c-11 -13 -11 -19 2 -31 20 -20 478 -234 501 -234 20 0 34
27 20 41 -9 9 -462 224 -493 234 -9 3 -23 -2 -30 -10z"/>
<path d="M4433 4244 c-3 -8 1 -22 8 -29 13 -13 840 -404 902 -427 33 -12 62 5
48 29 -8 15 -914 443 -938 443 -8 0 -16 -7 -20 -16z"/>
<path d="M4340 4101 c0 -25 8 -30 138 -90 116 -53 146 -58 140 -20 -2 16 -31
34 -118 75 -125 58 -160 66 -160 35z"/>
<path d="M5317 3917 c-3 -8 -2 -18 1 -24 12 -19 503 -242 518 -236 8 3 14 15
12 26 -2 16 -54 45 -243 133 -132 62 -250 113 -261 114 -12 0 -24 -6 -27 -13z"/>
<path d="M4931 3806 c-6 -7 -9 -20 -6 -27 8 -19 1109 -532 1132 -527 37 7 26
36 -24 61 -70 36 -1080 507 -1086 507 -2 0 -10 -6 -16 -14z"/>
<path d="M5583 3693 c-27 -10 -13 -43 27 -63 93 -48 1751 -819 1766 -822 21
-4 42 28 29 41 -9 8 -1694 800 -1780 836 -16 7 -36 10 -42 8z"/>
<path d="M5081 3587 c-8 -10 -7 -18 2 -29 16 -20 1320 -628 1347 -628 23 0 28
31 8 47 -18 14 -1324 623 -1336 623 -5 0 -15 -6 -21 -13z"/>
<path d="M6223 3504 c-3 -8 1 -22 8 -29 12 -12 469 -230 535 -255 26 -10 47 2
42 26 -2 12 -83 55 -277 146 -150 70 -279 128 -287 128 -8 0 -17 -7 -21 -16z"/>
<path d="M6783 2674 c-3 -8 1 -22 8 -29 24 -24 533 -256 554 -253 12 2 20 11
20 22 0 16 -53 45 -270 147 -148 70 -278 128 -288 128 -10 1 -20 -6 -24 -15z"/>
</g>
</svg>
