<?xml version="1.0" standalone="no"?>
<!DOCTYPE svg PUBLIC "-//W3C//DTD SVG 20010904//EN"
 "http://www.w3.org/TR/2001/REC-SVG-20010904/DTD/svg10.dtd">
<svg version="1.0" xmlns="http://www.w3.org/2000/svg"
 width="1280.000000pt" height="1210.000000pt" viewBox="0 0 1280.000000 1210.000000"
 preserveAspectRatio="xMidYMid meet">
<metadata>
Created by potrace 1.15, written by Peter Selinger 2001-2017
</metadata>
<g transform="translate(0.000000,1210.000000) scale(0.100000,-0.100000)"
fill="#000000" stroke="none">
<path d="M5779 12072 c-83 -54 -217 -255 -289 -437 -69 -172 -64 -114 -70
-775 -3 -333 -4 -606 -4 -608 1 -1 24 26 53 60 l51 63 0 233 c0 223 1 236 26
311 31 94 93 209 155 289 71 90 143 114 210 69 52 -35 125 -132 174 -232 75
-152 77 -161 82 -435 l5 -245 47 -57 46 -58 3 565 c2 614 1 633 -53 771 -86
218 -211 414 -309 486 -49 35 -71 35 -127 0z"/>
<path d="M5117 11408 c-37 -49 -83 -145 -106 -223 -21 -69 -21 -83 -19 -738
l3 -668 168 147 167 147 0 522 c0 504 -1 525 -21 591 -40 129 -113 254 -149
254 -10 0 -30 -15 -43 -32z"/>
<path d="M6483 11412 c-29 -39 -76 -134 -104 -212 l-24 -65 -3 -530 -2 -530
169 -147 c93 -82 172 -148 176 -148 3 0 4 305 3 678 l-3 677 -26 70 c-14 39
-39 95 -54 125 -58 114 -92 136 -132 82z"/>
<path d="M5805 11172 c-40 -25 -77 -75 -130 -175 -91 -172 -85 -99 -85 -1012
l0 -805 -377 -2 -378 -3 0 -115 0 -115 378 -5 379 -5 -26 -24 c-24 -23 -26
-31 -26 -113 l0 -88 56 0 57 0 -7 -542 c-6 -518 -11 -867 -37 -3063 -12 -1003
-8 -1418 15 -1571 15 -103 28 -134 56 -134 25 0 38 25 56 113 31 146 30 573
-6 3322 -5 385 -12 965 -16 1288 l-7 588 69 -3 69 -3 -3 -255 c-9 -840 -23
-2014 -33 -2800 -15 -1153 -15 -1998 -2 -2115 l11 -89 -48 -53 c-26 -28 -65
-85 -86 -126 l-38 -75 -30 25 c-125 105 -391 158 -600 119 -48 -10 -89 -16
-90 -14 -1 2 -7 29 -14 61 -10 52 -9 64 9 110 55 147 189 246 351 263 76 8
159 -11 249 -56 33 -17 66 -29 72 -27 20 6 -66 88 -122 116 -141 71 -293 65
-425 -17 -64 -40 -132 -118 -162 -187 l-28 -63 -57 57 c-100 101 -228 147
-378 138 -107 -6 -182 -33 -265 -97 l-63 -47 -45 61 c-39 55 -139 136 -166
136 -5 0 -12 27 -15 61 -21 234 -302 430 -562 392 -87 -12 -193 -60 -225 -100
-11 -14 -22 -24 -23 -22 -2 2 -13 21 -26 41 -28 48 -132 143 -183 169 -164 84
-323 86 -488 7 -95 -46 -183 -125 -220 -198 -28 -56 -27 -55 -42 -43 -7 6 -35
17 -62 26 -174 59 -375 7 -516 -132 -110 -109 -165 -245 -158 -390 l3 -69 -42
-22 c-61 -32 -129 -110 -166 -188 -30 -63 -32 -74 -32 -177 0 -103 2 -114 31
-176 18 -36 52 -88 78 -114 25 -27 46 -49 46 -50 0 -1 -17 -7 -38 -13 -55 -17
-152 -82 -190 -128 -18 -21 -45 -64 -60 -95 l-27 -56 -90 -6 c-153 -11 -269
-61 -370 -162 -103 -103 -155 -225 -155 -367 l0 -77 -42 -12 c-160 -42 -272
-167 -301 -334 -33 -195 103 -404 290 -443 l38 -8 -3 -55 c-7 -109 50 -245
133 -315 118 -102 302 -126 437 -58 49 25 131 97 141 124 4 12 8 11 21 -7 27
-37 131 -112 199 -144 173 -81 366 -77 544 11 85 42 183 123 234 193 l27 37
21 -33 c37 -60 128 -137 204 -172 116 -54 252 -63 374 -26 111 33 237 136 288
234 l28 53 91 1 c97 1 184 19 272 58 48 21 54 22 54 7 0 -31 46 -116 88 -163
56 -63 159 -116 254 -130 62 -10 86 -9 150 5 132 29 226 99 285 211 l28 54 35
-33 c85 -81 227 -153 354 -181 153 -34 376 -5 431 55 17 19 17 20 -6 28 -13 5
-64 12 -114 16 -317 23 -561 176 -685 431 -53 108 -73 197 -72 325 0 150 25
248 107 424 41 87 37 108 -14 82 -102 -53 -209 -211 -253 -374 -29 -110 -29
-289 0 -394 26 -91 62 -176 104 -241 l31 -48 -44 -45 c-156 -159 -380 -162
-549 -7 l-55 51 65 69 c72 76 125 172 140 253 11 59 5 100 -16 100 -7 0 -43
-36 -80 -80 -90 -109 -155 -164 -249 -211 -113 -56 -221 -76 -335 -62 -101 13
-215 57 -287 110 -55 41 -173 154 -173 165 0 4 10 8 23 8 28 0 138 52 156 74
22 26 8 29 -55 9 -86 -25 -212 -22 -289 7 -83 32 -183 131 -215 215 -32 83
-33 194 -2 294 13 40 21 76 18 79 -12 11 -47 -33 -79 -97 -30 -61 -32 -72 -32
-171 0 -99 2 -109 33 -173 62 -126 176 -214 310 -239 60 -11 61 -12 67 -49 9
-53 55 -146 103 -206 70 -87 201 -173 310 -202 23 -7 42 -16 42 -21 0 -6 -28
-38 -62 -73 -184 -186 -455 -205 -665 -47 -28 22 -63 55 -78 74 l-26 34 27 78
c60 178 35 378 -61 493 -48 57 -52 47 -51 -132 1 -145 -1 -169 -22 -229 -43
-125 -124 -225 -236 -292 -86 -52 -155 -70 -266 -69 -169 0 -286 57 -427 208
-49 52 -95 95 -101 95 -33 0 0 -153 49 -221 l19 -27 -37 -32 c-164 -135 -410
-113 -527 47 -41 56 -76 150 -76 204 0 36 2 38 37 45 76 14 144 65 113 84 -6
4 -40 12 -77 19 -164 30 -262 133 -263 277 -1 202 207 311 417 219 70 -31 98
-28 88 7 -21 71 -109 148 -193 171 -42 11 -44 13 -39 45 10 60 76 180 134 242
125 136 290 187 512 160 119 -14 133 -9 105 40 -23 37 -90 84 -156 108 -27 9
-48 21 -48 26 0 14 44 69 92 115 90 87 240 133 360 112 184 -32 319 -162 374
-358 9 -34 21 -60 26 -57 15 9 8 121 -11 183 -24 77 -71 150 -128 200 -50 45
-51 43 57 61 72 11 201 13 248 4 l31 -6 -40 -53 c-109 -144 -133 -351 -59
-502 32 -65 79 -113 111 -113 23 0 22 -5 20 155 -2 114 0 139 22 206 41 130
131 240 247 303 l48 26 11 -48 c22 -87 59 -152 120 -212 77 -75 178 -116 235
-94 26 10 19 28 -43 103 -32 40 -71 98 -87 129 -27 53 -29 66 -29 167 0 98 3
116 27 167 16 35 57 88 106 140 43 46 82 95 85 109 4 15 21 48 39 75 64 94
182 129 287 83 47 -20 49 -22 54 -70 8 -65 49 -154 77 -169 30 -16 35 -7 48
98 15 123 43 191 107 260 137 149 335 162 513 35 54 -38 63 -49 57 -67 -29
-88 -36 -133 -26 -158 6 -16 14 -28 19 -28 5 0 47 38 94 85 63 62 104 93 151
115 150 71 296 57 432 -41 50 -36 145 -151 129 -156 -6 -2 -45 -23 -88 -48
-289 -165 -465 -453 -465 -765 -1 -83 11 -145 36 -202 29 -68 37 -56 73 116
44 210 105 346 218 482 115 140 292 249 477 295 116 28 286 30 443 5 l112 -18
0 -44 c0 -29 -4 -44 -13 -44 -7 0 -44 -15 -83 -34 -127 -60 -219 -181 -231
-302 -3 -30 -2 -54 3 -54 5 0 25 30 44 67 48 92 123 166 207 206 57 27 82 32
155 35 130 6 206 -23 321 -120 45 -39 57 -45 57 -31 0 27 -50 103 -94 140 -66
59 -180 103 -264 103 l-44 0 33 43 c60 77 185 192 256 233 150 90 316 127 470
106 159 -21 270 -69 430 -183 44 -33 88 -59 97 -59 36 0 1 107 -58 177 l-26
30 88 18 c303 60 515 3 735 -197 l58 -53 -15 -37 c-30 -69 -16 -178 22 -178
11 0 38 25 65 60 26 33 65 73 87 89 48 34 127 54 179 45 48 -9 121 -46 147
-76 34 -37 104 -145 98 -151 -3 -3 26 -24 65 -47 182 -108 270 -264 259 -460
-7 -114 -49 -207 -143 -315 -61 -69 -65 -77 -41 -71 77 19 181 122 228 224 17
37 32 68 33 69 4 7 150 -49 196 -74 162 -88 261 -289 230 -466 -15 -85 -40
-143 -103 -239 -57 -88 -59 -115 -5 -104 111 22 226 139 278 282 32 87 32 244
1 337 -59 169 -195 298 -363 342 -62 17 -140 19 -187 6 l-32 -10 0 58 c0 203
-134 394 -320 457 -30 10 -56 19 -58 20 -1 1 4 14 13 30 19 37 19 97 0 162
-20 68 -97 152 -173 189 -51 25 -68 28 -157 28 -96 0 -102 -1 -166 -37 l-66
-36 -17 36 c-27 57 -94 138 -149 182 l-49 40 48 21 c282 122 510 140 759 62
69 -22 240 -95 253 -108 3 -2 -9 -20 -27 -40 -34 -39 -40 -72 -14 -82 9 -4 64
0 122 7 198 25 304 12 450 -56 l74 -34 -47 -31 c-107 -72 -216 -236 -219 -334
-1 -30 3 -49 10 -52 7 -2 53 35 104 82 101 94 147 129 226 168 166 85 398 91
569 16 59 -26 163 -93 222 -142 l43 -36 -43 -12 c-79 -21 -148 -71 -148 -107
0 -17 13 -20 129 -29 117 -9 137 -14 203 -45 175 -85 259 -243 244 -463 -7
-102 1 -128 34 -107 11 6 22 12 24 12 12 0 28 -153 24 -229 -10 -215 -147
-352 -390 -389 l-58 -9 -29 52 c-44 78 -110 128 -124 92 -2 -6 3 -65 11 -130
14 -106 14 -126 0 -206 -43 -239 -209 -406 -459 -460 l-87 -19 -6 39 c-14 85
-56 152 -85 134 -5 -3 -23 -49 -40 -103 -45 -145 -112 -232 -220 -286 -57 -29
-168 -51 -214 -42 l-33 6 61 63 c154 159 208 404 124 569 -39 76 -61 59 -84
-66 -19 -105 -54 -202 -96 -268 -70 -109 -210 -209 -334 -239 -43 -11 -166
-13 -334 -6 -26 1 -46 -3 -48 -10 -7 -21 58 -82 123 -114 35 -18 64 -33 64
-34 0 -1 -35 -27 -78 -58 -165 -119 -315 -169 -507 -169 -324 1 -556 150 -746
479 -31 54 -64 99 -72 101 -37 7 -33 -120 8 -240 35 -102 99 -202 187 -291 89
-91 90 -83 -18 -136 -189 -95 -398 -77 -582 47 -34 24 -62 45 -62 48 0 4 22
39 49 80 56 83 88 161 104 250 10 60 6 94 -12 94 -5 0 -36 -42 -68 -92 -139
-217 -296 -342 -498 -399 -107 -30 -275 -31 -387 -1 -279 75 -486 304 -542
601 -10 50 -16 138 -16 222 0 85 -4 139 -10 139 -16 0 -57 -71 -81 -140 -34
-99 -38 -276 -10 -395 61 -256 257 -483 503 -582 274 -111 606 -70 831 103 33
25 60 44 62 42 1 -2 14 -21 28 -44 67 -109 211 -201 348 -224 211 -36 432 54
540 220 14 21 19 23 32 12 25 -21 182 -71 260 -83 138 -22 312 0 449 55 139
56 286 178 348 289 l32 57 76 0 c46 0 104 8 149 21 l73 20 46 -32 c80 -55 145
-72 256 -67 87 4 106 9 171 41 43 21 93 57 124 88 49 49 113 151 113 180 1 33
14 38 70 23 72 -19 160 -17 244 5 l68 18 47 -50 c101 -109 251 -189 419 -224
106 -22 308 -13 412 17 95 28 216 90 273 140 l44 39 48 -15 c165 -49 391 -12
539 88 l36 25 53 -52 c70 -68 142 -96 247 -96 103 0 173 27 248 96 69 64 100
123 115 216 9 60 13 69 31 69 37 1 104 37 154 84 70 66 104 141 110 241 5 98
-19 170 -77 237 l-39 44 44 24 c25 13 69 49 99 81 62 68 94 142 102 240 14
167 -100 339 -250 380 -34 9 -38 13 -33 32 39 135 23 264 -47 373 -52 82 -189
184 -249 184 -25 0 -23 5 15 53 130 162 106 411 -53 567 -111 110 -271 156
-402 116 l-46 -13 -7 43 c-15 104 -117 239 -222 296 -136 74 -299 77 -435 8
l-56 -29 -16 46 c-89 261 -407 379 -669 247 -63 -32 -165 -134 -190 -190 l-19
-41 -63 34 c-298 158 -721 9 -893 -315 -30 -57 -72 -188 -72 -227 0 -19 -7
-20 -107 -21 -87 0 -119 -5 -163 -22 l-55 -22 -14 22 c-36 57 -146 149 -231
193 -130 67 -218 88 -370 88 -148 1 -224 -15 -347 -73 -98 -46 -150 -83 -215
-153 l-46 -50 -44 16 c-83 30 -133 39 -228 38 -159 -1 -302 -53 -380 -137
l-40 -43 -65 47 c-51 37 -63 51 -58 67 15 53 14 185 -2 240 -56 194 -252 330
-444 311 -68 -7 -137 -32 -158 -57 -10 -12 7 -14 115 -14 122 0 130 -1 194
-32 88 -41 160 -113 201 -201 27 -56 32 -81 35 -155 4 -84 3 -88 -14 -79 -109
58 -336 79 -479 45 l-80 -19 -1 696 c-1 382 -6 1087 -13 1565 -6 479 -16 1187
-21 1575 -5 388 -10 829 -11 980 l-1 275 46 3 46 3 0 88 c0 80 -2 89 -25 111
-14 13 -25 26 -25 29 0 3 171 5 380 3 l380 -2 0 120 0 120 -375 0 -374 0 -3
813 c-3 811 -3 812 -25 870 -56 147 -179 327 -223 327 -8 0 -29 -8 -45 -18z
m181 -2844 c-3 -211 -11 -822 -17 -1358 -6 -536 -14 -1162 -18 -1390 l-6 -415
-8 580 c-4 319 -12 904 -17 1300 -5 396 -12 933 -16 1193 l-6 472 47 0 48 0
-7 -382z m4703 -4017 c111 -34 203 -110 267 -218 l26 -45 -32 -39 c-37 -46
-69 -115 -70 -147 0 -39 27 -36 95 8 173 113 340 119 481 18 86 -62 129 -139
174 -316 9 -35 15 -43 31 -40 21 3 41 31 59 81 11 32 43 35 126 13 224 -59
334 -257 280 -500 -17 -75 -17 -75 -54 -82 -59 -9 -105 -25 -134 -46 l-27 -19
-54 44 c-104 84 -216 121 -349 115 l-77 -3 7 25 c4 14 7 55 6 91 -2 132 -91
260 -222 322 -54 25 -83 32 -152 35 -75 4 -95 1 -148 -20 l-61 -25 -43 29
c-53 35 -148 65 -231 74 -154 16 -323 -48 -438 -166 -42 -42 -78 -91 -96 -128
l-28 -60 -50 25 c-100 51 -155 65 -280 70 -102 5 -133 2 -208 -17 -49 -12 -90
-20 -91 -18 -45 73 -105 134 -172 174 -17 10 -15 17 29 105 88 176 227 306
396 370 105 39 299 60 404 43 36 -6 37 -8 37 -50 0 -24 3 -44 8 -44 4 0 22 34
41 76 100 223 330 333 550 265z m-7991 -145 c153 -41 257 -154 321 -348 13
-37 26 -70 30 -73 16 -9 42 33 53 88 12 55 4 148 -18 201 -7 18 -1 18 152 13
153 -5 198 -13 279 -48 56 -25 135 -78 195 -134 l60 -55 -73 0 c-39 0 -92 -5
-116 -11 -129 -29 -258 -133 -316 -254 -19 -40 -35 -79 -35 -88 0 -14 -5 -14
-42 3 -160 70 -338 -11 -379 -173 -11 -44 -12 -45 -57 -52 -156 -21 -287 -157
-326 -336 -5 -24 -10 -26 -57 -28 -28 0 -68 -5 -89 -11 -34 -9 -43 -7 -87 20
-55 34 -185 70 -252 70 -116 -1 -263 -61 -329 -135 -37 -41 -37 -41 -77 -29
-22 7 -76 13 -121 13 l-81 1 -40 58 c-60 85 -85 161 -85 257 0 124 44 226 135
314 l35 33 19 -43 c26 -58 70 -109 94 -109 17 0 19 8 19 103 0 196 39 308 144
413 96 95 193 133 343 134 l83 0 -7 -45 c-11 -83 34 -225 71 -225 10 0 18 19
26 58 28 149 71 240 146 314 101 100 248 139 382 104z m3262 -596 c0 -10 -4
-22 -10 -25 -6 -4 -10 7 -10 25 0 18 4 29 10 25 6 -3 10 -15 10 -25z m4785
-102 c3 -3 -4 -23 -15 -46 -23 -48 -26 -110 -6 -118 7 -3 44 15 82 39 133 86
235 100 342 46 90 -44 141 -114 169 -229 11 -49 11 -56 -3 -65 -72 -45 -128
-93 -155 -131 -17 -25 -28 -48 -25 -51 3 -3 28 11 55 30 222 160 461 154 645
-14 75 -68 131 -181 147 -294 15 -109 19 -116 35 -80 30 68 12 222 -38 319
l-20 39 64 -7 c129 -14 246 -94 298 -203 46 -98 46 -182 1 -335 -16 -54 -17
-69 -6 -78 19 -15 63 4 107 48 l38 36 33 -32 c18 -17 48 -57 67 -89 33 -54 35
-62 35 -148 0 -81 -3 -95 -30 -144 -35 -64 -85 -106 -183 -155 -53 -27 -72
-42 -70 -54 5 -28 67 -52 135 -52 l62 0 25 -43 c37 -63 59 -159 51 -223 -13
-104 -86 -210 -184 -267 l-31 -18 -11 28 c-14 38 -38 63 -60 63 -13 0 -24 -20
-44 -82 -14 -46 -37 -100 -51 -121 -71 -108 -224 -147 -347 -88 l-47 23 25 32
c47 61 89 167 93 234 7 98 -8 101 -81 17 -185 -212 -306 -287 -510 -316 -113
-17 -214 -2 -381 56 -79 27 -134 41 -139 36 -20 -20 7 -67 73 -132 l69 -68
-57 -16 c-226 -66 -489 -65 -692 2 -45 15 -211 83 -219 90 -3 2 6 11 20 21 93
65 174 177 214 296 21 64 27 98 27 178 0 88 2 99 16 93 10 -4 43 -10 76 -14
331 -41 600 321 465 627 -26 60 -73 117 -109 132 l-30 12 24 42 c73 126 73
284 0 428 -32 63 -123 161 -182 195 -53 31 -153 63 -198 63 -21 0 -34 5 -34
13 0 26 -59 135 -103 189 l-46 56 77 74 c132 125 249 170 425 164 59 -2 110
-6 112 -8z"/>
<path d="M5443 10087 c-44 -53 -166 -168 -340 -321 l-273 -239 0 -123 0 -124
345 0 345 0 0 445 c0 245 -2 445 -4 445 -3 0 -36 -37 -73 -83z"/>
<path d="M6170 9727 l0 -447 340 0 340 0 -1 128 0 127 -265 230 c-168 145
-290 260 -331 310 -36 44 -70 84 -75 90 -4 5 -8 -192 -8 -438z"/>
<path d="M4990 8807 c0 -52 -10 -90 -55 -212 -30 -81 -55 -149 -55 -151 0 -2
25 -4 55 -4 l55 0 0 -65 0 -65 170 0 170 0 0 65 0 65 55 0 c30 0 55 2 55 4 0
2 -25 70 -55 151 -45 122 -55 160 -55 212 l0 63 -170 0 -170 0 0 -63z"/>
<path d="M6350 8801 c0 -58 -8 -91 -50 -206 -27 -75 -50 -141 -50 -146 0 -5
22 -9 50 -9 l49 0 3 -62 3 -63 170 0 170 0 3 63 3 62 49 0 c28 0 50 4 50 9 0
5 -22 70 -50 145 -42 115 -50 147 -50 206 l0 70 -175 0 -175 0 0 -69z"/>
<path d="M8177 1163 c25 -175 -34 -305 -165 -370 -51 -25 -68 -28 -159 -28
-64 0 -102 -4 -100 -10 2 -5 23 -21 48 -35 36 -21 57 -25 119 -25 158 0 286
101 326 257 22 86 8 173 -38 241 -31 43 -40 34 -31 -30z"/>
</g>
</svg>
